<?xml version="1.0" encoding="UTF-8" standalone="no"?>
<svg
   xmlns:dc="http://purl.org/dc/elements/1.1/"
   xmlns:cc="http://creativecommons.org/ns#"
   xmlns:rdf="http://www.w3.org/1999/02/22-rdf-syntax-ns#"
   xmlns:svg="http://www.w3.org/2000/svg"
   xmlns="http://www.w3.org/2000/svg"
   height="490.54901"
   width="363.54901"
   xml:space="preserve"
   viewBox="0 0 363.549 490.549"
   y="0px"
   x="0px"
   id="Capa_1"
   version="1.1"><metadata
   id="metadata43"><rdf:RDF><cc:Work
       rdf:about=""><dc:format>image/svg+xml</dc:format><dc:type
         rdf:resource="http://purl.org/dc/dcmitype/StillImage" /><dc:title></dc:title></cc:Work></rdf:RDF></metadata><defs
   id="defs41" />
<g
   style="fill:#ffffff;fill-opacity:1"
   transform="matrix(1.000358,0,0,0.99894068,-63.621221,0.21906965)"
   id="g6">
	<g
   style="fill:#ffffff;fill-opacity:1"
   id="g4">
		<path
   style="fill:#ffffff;fill-opacity:1"
   id="path2"
   d="m 298.524,182.874 v -49.9 h -110.1 -49.1 v 145.1 c 0,3 -1.4,5.7 -3.7,7.5 l -59.3,45 c -5.1,3.9 -12.5,0.1 -12.5,-6.4 v -194.4 c 0,-40.8 32.3,-73.9 72.2,-73.9 h 52.3 110.1 v -49.9 c 0,-4.9 5.5,-7.7 9.3,-4.8 l 116.6,88.5 c 3.1,2.4 3.1,7.2 0,9.6 l -116.5,88.5 c -3.9,2.9 -9.3,0 -9.3,-4.9 z m 128.2,177.9 v -194.4 c 0,-6.6 -7.3,-10.3 -12.4,-6.4 l -59.3,45 c -2.3,1.8 -3.7,4.5 -3.7,7.5 v 145.1 h -49.1 -110.1 v -49.9 c 0,-4.9 -5.5,-7.7 -9.3,-4.8 l -116.5,88.4 c -3.1,2.4 -3.1,7.2 0,9.6 l 116.5,88.5 c 3.8,2.9 9.3,0.1 9.3,-4.8 v -49.9 h 110.1 52.3 c 39.8,0 72.2,-33.1 72.2,-73.9 z" />
	</g>
</g>
<g
   id="g8">
</g>
<g
   id="g10">
</g>
<g
   id="g12">
</g>
<g
   id="g14">
</g>
<g
   id="g16">
</g>
<g
   id="g18">
</g>
<g
   id="g20">
</g>
<g
   id="g22">
</g>
<g
   id="g24">
</g>
<g
   id="g26">
</g>
<g
   id="g28">
</g>
<g
   id="g30">
</g>
<g
   id="g32">
</g>
<g
   id="g34">
</g>
<g
   id="g36">
</g>
<text
   transform="scale(1.2372627,0.80823582)"
   id="text871"
   y="407.23755"
   x="110.37881"
   style="font-style:normal;font-weight:normal;font-size:49.49050522px;line-height:1.25;font-family:sans-serif;letter-spacing:0px;word-spacing:0px;fill:#ffffff;fill-opacity:1;stroke:none;stroke-width:1.23726261;"
   xml:space="preserve"><tspan
     style="font-style:normal;font-variant:normal;font-weight:normal;font-stretch:normal;font-size:346.43353271px;font-family:Kalapi;-inkscape-font-specification:Kalapi;stroke-width:1.23726261;fill:#ffffff;fill-opacity:1;"
     y="407.23755"
     x="110.37881"
     id="tspan869">1</tspan></text>
</svg>