<?xml version="1.0" encoding="UTF-8" standalone="no"?>
<svg
   xmlns:dc="http://purl.org/dc/elements/1.1/"
   xmlns:cc="http://creativecommons.org/ns#"
   xmlns:rdf="http://www.w3.org/1999/02/22-rdf-syntax-ns#"
   xmlns:svg="http://www.w3.org/2000/svg"
   xmlns="http://www.w3.org/2000/svg"
   xmlns:sodipodi="http://sodipodi.sourceforge.net/DTD/sodipodi-0.dtd"
   xmlns:inkscape="http://www.inkscape.org/namespaces/inkscape"
   height="490.54901"
   width="363.54901"
   xml:space="preserve"
   viewBox="0 0 363.549 490.549"
   y="0px"
   x="0px"
   id="Capa_1"
   version="1.1"
   sodipodi:docname="noloop.svg"
   inkscape:version="0.92.3 (2405546, 2018-03-11)"><sodipodi:namedview
   pagecolor="#ffffff"
   bordercolor="#666666"
   borderopacity="1"
   objecttolerance="10"
   gridtolerance="10"
   guidetolerance="10"
   inkscape:pageopacity="0"
   inkscape:pageshadow="2"
   inkscape:window-width="1311"
   inkscape:window-height="713"
   id="namedview23"
   showgrid="false"
   inkscape:zoom="0.48109362"
   inkscape:cx="181.77451"
   inkscape:cy="245.27451"
   inkscape:window-x="55"
   inkscape:window-y="27"
   inkscape:window-maximized="1"
   inkscape:current-layer="Capa_1" /><metadata
   id="metadata43"><rdf:RDF><cc:Work
       rdf:about=""><dc:format>image/svg+xml</dc:format><dc:type
         rdf:resource="http://purl.org/dc/dcmitype/StillImage" /><dc:title></dc:title></cc:Work></rdf:RDF></metadata><defs
   id="defs41" />
<g
   style="fill:#ffffff;fill-opacity:1"
   transform="matrix(1.000358,0,0,0.99894068,-63.621221,0.21906965)"
   id="g6">
	<g
   style="fill:#ffffff;fill-opacity:1"
   id="g4">
		<path
   style="fill:#ffffff;fill-opacity:1"
   id="path2"
   d="m 298.524,182.874 v -49.9 h -110.1 -49.1 v 145.1 c 0,3 -1.4,5.7 -3.7,7.5 l -59.3,45 c -5.1,3.9 -12.5,0.1 -12.5,-6.4 v -194.4 c 0,-40.8 32.3,-73.9 72.2,-73.9 h 52.3 110.1 v -49.9 c 0,-4.9 5.5,-7.7 9.3,-4.8 l 116.6,88.5 c 3.1,2.4 3.1,7.2 0,9.6 l -116.5,88.5 c -3.9,2.9 -9.3,0 -9.3,-4.9 z m 128.2,177.9 v -194.4 c 0,-6.6 -7.3,-10.3 -12.4,-6.4 l -59.3,45 c -2.3,1.8 -3.7,4.5 -3.7,7.5 v 145.1 h -49.1 -110.1 v -49.9 c 0,-4.9 -5.5,-7.7 -9.3,-4.8 l -116.5,88.4 c -3.1,2.4 -3.1,7.2 0,9.6 l 116.5,88.5 c 3.8,2.9 9.3,0.1 9.3,-4.8 v -49.9 h 110.1 52.3 c 39.8,0 72.2,-33.1 72.2,-73.9 z" />
	</g>
</g>
<g
   id="g8">
</g>
<g
   id="g10">
</g>
<g
   id="g12">
</g>
<g
   id="g14">
</g>
<g
   id="g16">
</g>
<g
   id="g18">
</g>
<g
   id="g20">
</g>
<g
   id="g22">
</g>
<g
   id="g24">
</g>
<g
   id="g26">
</g>
<g
   id="g28">
</g>
<g
   id="g30">
</g>
<g
   id="g32">
</g>
<g
   id="g34">
</g>
<g
   id="g36">
</g>
<rect
   style="fill:#ffffff;fill-opacity:1;stroke:none;stroke-width:0.12094488;stroke-miterlimit:4;stroke-dasharray:none;stroke-opacity:1"
   id="rect830"
   width="539.22931"
   height="74.240837"
   x="36.21022"
   y="-51.986576"
   transform="rotate(56.340925)" /><rect
   style="fill:#ffffff;fill-opacity:1;stroke:none;stroke-width:0.12094488;stroke-miterlimit:4;stroke-dasharray:none;stroke-opacity:1"
   id="rect830-6"
   width="539.22931"
   height="74.240837"
   x="-166.26787"
   y="246.4613"
   transform="matrix(-0.55425004,0.83235022,0.83235022,0.55425004,0,0)" /></svg>