<?xml version="1.0" encoding="UTF-8" standalone="no"?>
<svg
   xmlns:dc="http://purl.org/dc/elements/1.1/"
   xmlns:cc="http://creativecommons.org/ns#"
   xmlns:rdf="http://www.w3.org/1999/02/22-rdf-syntax-ns#"
   xmlns:svg="http://www.w3.org/2000/svg"
   xmlns="http://www.w3.org/2000/svg"
   xmlns:sodipodi="http://sodipodi.sourceforge.net/DTD/sodipodi-0.dtd"
   xmlns:inkscape="http://www.inkscape.org/namespaces/inkscape"
   id="svg8"
   version="1.1"
   viewBox="0 0 32 28"
   height="28mm"
   width="32mm"
   sodipodi:docname="shuffle.svg"
   inkscape:version="0.92.3 (2405546, 2018-03-11)">
  <sodipodi:namedview
     pagecolor="#ffffff"
     bordercolor="#666666"
     borderopacity="1"
     objecttolerance="10"
     gridtolerance="10"
     guidetolerance="10"
     inkscape:pageopacity="0"
     inkscape:pageshadow="2"
     inkscape:window-width="803"
     inkscape:window-height="480"
     id="namedview7"
     showgrid="false"
     inkscape:zoom="2.2300595"
     inkscape:cx="60.472441"
     inkscape:cy="52.913386"
     inkscape:window-x="55"
     inkscape:window-y="27"
     inkscape:window-maximized="0"
     inkscape:current-layer="svg8" />
  <defs
     id="defs2" />
  <metadata
     id="metadata5">
    <rdf:RDF>
      <cc:Work
         rdf:about="">
        <dc:format>image/svg+xml</dc:format>
        <dc:type
           rdf:resource="http://purl.org/dc/dcmitype/StillImage" />
        <dc:title />
      </cc:Work>
    </rdf:RDF>
  </metadata>
  <g
     transform="translate(0,-269)"
     id="layer1"
     style="fill:#ffffff;fill-opacity:1">
    <path
       id="path826"
       d="m 24.760359,294.48754 -0.0084,-2.49825 -2.282625,-0.0158 -2.282624,-0.0158 -0.211959,-0.074 c -0.4623,-0.16127 -0.445684,-0.14651 -3.578908,-3.17985 l -2.975649,-2.88078 -2.97548,2.88022 c -1.7774354,1.72053 -3.0414678,2.92002 -3.1393703,2.97906 -0.2484812,0.14986 -0.5704567,0.25525 -0.887478,0.29047 -0.171127,0.019 -1.510903,0.0318 -3.3426831,0.032 l -3.05708592,3e-4 v -2.00829 -2.00828 H 2.6839488 5.3498056 l 2.5759492,-2.49849 2.5759492,-2.49849 -2.5759492,-2.49849 -2.5759492,-2.49849 H 2.683997 0.01813986 v -1.9931 -1.99304 l 3.31795794,0.009 3.3179574,0.009 0.2119579,0.074 c 0.4629452,0.1615 0.4449834,0.14554 3.5786629,3.17963 l 2.975397,2.88084 2.992035,-2.89595 c 2.905238,-2.81194 2.999604,-2.89967 3.252907,-3.02453 0.452934,-0.22325 0.297425,-0.21056 2.804368,-0.22887 l 2.282625,-0.0167 0.01631,-2.49065 0.01631,-2.49065 3.595134,3.48694 3.595134,3.48693 -3.603287,3.49462 -3.603286,3.49462 v -2.49054 -2.49052 h -1.638676 -1.638675 l -2.575951,2.49849 -2.57595,2.49849 2.57595,2.49849 2.575951,2.49849 h 1.638478 1.638478 l 0.0083,-2.48274 0.0083,-2.48273 3.595134,3.48693 3.595135,3.48693 -3.603088,3.49443 -3.603087,3.49442 z"
       style="fill:#ffffff;stroke-width:0.03211394;fill-opacity:1" />
  </g>
</svg>
