<?xml version="1.0" encoding="UTF-8" standalone="no"?>
<svg
   xmlns:dc="http://purl.org/dc/elements/1.1/"
   xmlns:cc="http://creativecommons.org/ns#"
   xmlns:rdf="http://www.w3.org/1999/02/22-rdf-syntax-ns#"
   xmlns:svg="http://www.w3.org/2000/svg"
   xmlns="http://www.w3.org/2000/svg"
   xmlns:sodipodi="http://sodipodi.sourceforge.net/DTD/sodipodi-0.dtd"
   xmlns:inkscape="http://www.inkscape.org/namespaces/inkscape"
   id="svg8"
   version="1.1"
   viewBox="0 0 45 40"
   height="40mm"
   width="45mm"
   sodipodi:docname="source.svg"
   inkscape:version="0.92.3 (2405546, 2018-03-11)">
  <sodipodi:namedview
     pagecolor="#ffffff"
     bordercolor="#666666"
     borderopacity="1"
     objecttolerance="10"
     gridtolerance="10"
     guidetolerance="10"
     inkscape:pageopacity="0"
     inkscape:pageshadow="2"
     inkscape:window-width="1311"
     inkscape:window-height="713"
     id="namedview7"
     showgrid="false"
     inkscape:zoom="1.1893044"
     inkscape:cx="13.139895"
     inkscape:cy="77.134739"
     inkscape:window-x="55"
     inkscape:window-y="27"
     inkscape:window-maximized="1"
     inkscape:current-layer="svg8" />
  <defs
     id="defs2" />
  <metadata
     id="metadata5">
    <rdf:RDF>
      <cc:Work
         rdf:about="">
        <dc:format>image/svg+xml</dc:format>
        <dc:type
           rdf:resource="http://purl.org/dc/dcmitype/StillImage" />
        <dc:title></dc:title>
      </cc:Work>
    </rdf:RDF>
  </metadata>
  <g
     id="layer1"
     transform="matrix(0.99561852,0,0,1.003984,-26.013024,-237.92737)">
    <path
       id="path3728"
       transform="scale(0.26458333)"
       d="m 113.92773,896.44727 c -11.33928,0 -14.642574,9.34672 -14.642574,15.35742 v 118.21481 c 0,11.875 9.462714,15.715 13.572264,15.7149 h 142.5 c 6.29193,-2e-4 13.50247,-7.1674 13.50196,-16.6016 l -0.004,-92.32421 c -3.4e-4,-6.38075 -7.22044,-13.21755 -14.77539,-13.13281 -8.57832,0.0964 -64.79492,-0.043 -64.79492,-0.043 l -16.07032,-27.18164 z m 58.37891,56.9414 c 1.16928,-0.0483 2.51228,0.35986 3.94336,1.38086 6.87851,4.90749 30.375,21.81252 33.375,24 2.6875,2.00001 2.81287,5.02271 -0.125,7.125 -12.42007,8.8876 -27.51835,19.77647 -33.5,23.87497 -3.375,2.3125 -8,0.5 -8,-4.25 v -46.87497 c 0,-2.83691 1.73422,-5.1496 4.30664,-5.25586 z"
       style="fill:#ffffff;fill-opacity:1;stroke:#000000;stroke-width:0.99999994px;stroke-linecap:butt;stroke-linejoin:miter;stroke-opacity:1"
       inkscape:connector-curvature="0" />
  </g>
</svg>
