<?xml version="1.0" encoding="UTF-8" standalone="no"?>
<svg
   xmlns:dc="http://purl.org/dc/elements/1.1/"
   xmlns:cc="http://creativecommons.org/ns#"
   xmlns:rdf="http://www.w3.org/1999/02/22-rdf-syntax-ns#"
   xmlns:svg="http://www.w3.org/2000/svg"
   xmlns="http://www.w3.org/2000/svg"
   width="100"
   height="100"
   viewBox="0 0 100 100"
   id="svg2"
   version="1.1">
  <defs
     id="defs4" />
  <metadata
     id="metadata7">
    <rdf:RDF>
      <cc:Work
         rdf:about="">
        <dc:format>image/svg+xml</dc:format>
        <dc:type
           rdf:resource="http://purl.org/dc/dcmitype/StillImage" />
        <dc:title></dc:title>
      </cc:Work>
    </rdf:RDF>
  </metadata>
  <path
     id="path4146"
     d="m 42.499115,78.900412 c -0.26753,-0.0619 -0.643677,-0.196128 -0.835883,-0.298282 -0.192204,-0.102155 -4.052896,-3.893073 -8.579314,-8.424265 l -8.229851,-8.238529 -6.574821,0 c -7.262004,0 -7.283977,-0.0022 -8.133443,-0.809202 -0.2387926,-0.22686 -0.5711886,-0.701816 -0.7386576,-1.055459 l -0.304489,-0.642986 -0.0013,-9.758476 c -9.23e-4,-7.170178 0.03929,-9.893814 0.15162,-10.268732 0.08408,-0.28064 0.403041,-0.788498 0.708797,-1.128572 0.9405096,-1.046074 0.7880926,-1.027256 8.3206316,-1.027256 l 6.564543,0 8.361987,-8.343411 c 6.840804,-6.82561 8.455561,-8.373841 8.876375,-8.510687 1.605369,-0.522054 3.312084,0.260289 3.917262,1.79564 0.260821,0.661706 0.262151,0.800346 0.262151,27.320921 0,29.373415 0.05397,27.458175 -0.800062,28.390461 -0.765813,0.835981 -1.948229,1.234227 -2.965589,0.998835 z m 17.344708,-6.545913 c -1.684515,-0.657804 -2.421726,-2.595127 -1.60172,-4.20918 0.342961,-0.675068 1.237751,-1.333767 3.451693,-2.54096 3.064475,-1.670962 5.718607,-4.468849 7.319403,-7.715838 1.419493,-2.879242 1.962636,-5.17101 1.96578,-8.294526 0.0015,-1.510553 -0.06288,-2.318691 -0.265913,-3.337079 -1.174211,-5.889547 -4.576126,-10.399462 -9.981103,-13.231936 -1.527999,-0.800746 -2.171777,-1.32035 -2.520756,-2.034538 -0.936168,-1.915879 0.297223,-4.119309 2.448435,-4.374089 0.800174,-0.09477 1.617025,0.16957 3.348001,1.083437 2.435092,1.285602 4.380651,2.733774 6.111923,4.549393 1.487022,1.55947 1.688969,1.811342 2.835966,3.537068 2.881033,4.334688 4.178233,8.597525 4.183105,13.746444 0.0022,2.355321 -0.168177,3.877137 -0.665798,5.945946 -1.433446,5.959396 -5.356839,11.552693 -10.404088,14.832357 -1.125154,0.731117 -3.10612,1.763942 -3.920958,2.044287 -0.923868,0.317858 -1.488474,0.317665 -2.30397,-7.72e-4 z M 54.929858,60.928635 c -0.779851,-0.364504 -1.203996,-0.775753 -1.543889,-1.496946 -0.325784,-0.69126 -0.388288,-1.497331 -0.175503,-2.263348 0.160147,-0.576525 1.034331,-1.447703 2.313306,-2.305353 1.329692,-0.891659 2.081085,-1.665674 2.589637,-2.667602 0.427866,-0.842965 0.432399,-0.870239 0.432399,-2.601391 0,-1.725506 -0.0058,-1.76099 -0.425473,-2.587745 -0.516765,-1.01811 -1.178752,-1.720273 -2.365902,-2.509489 -1.34662,-0.89523 -2.344665,-1.87068 -2.522987,-2.465867 -0.348122,-1.161926 0.01783,-2.560058 0.8543,-3.263903 1.06372,-0.89506 2.324451,-0.958598 3.926315,-0.197875 2.431558,1.154741 4.093475,2.824987 5.419738,5.446898 1.003611,1.984056 1.287776,3.234446 1.282268,5.642279 -0.0054,2.372635 -0.258991,3.454548 -1.295973,5.529684 -1.218242,2.437861 -3.012684,4.253396 -5.314311,5.37678 -1.32283,0.64565 -2.32521,0.760568 -3.173925,0.363878 z"
     style="fill:#ffffff;fill-opacity:1;stroke:#000000;stroke-opacity:1;stroke-width:0.2;stroke-miterlimit:4;stroke-dasharray:none" />
</svg>
